<?xml version="1.0" encoding="UTF-8" standalone="no"?>
<!DOCTYPE svg PUBLIC "-//W3C//DTD SVG 1.1//EN" "http://www.w3.org/Graphics/SVG/1.1/DTD/svg11.dtd">
<svg width="100%" height="100%" viewBox="0 0 1024 1024" version="1.1" xmlns="http://www.w3.org/2000/svg"
    xmlns:xlink="http://www.w3.org/1999/xlink" xml:space="preserve" xmlns:serif="http://www.serif.com/"
    style="fill-rule:evenodd;clip-rule:evenodd;stroke-linejoin:round;stroke-miterlimit:2;">
    <g transform="matrix(1,0,0,1,555.722656,129.402344)">
        <path
            d="M0,0C4.84,2.95 279.92,163.82 280.99,164.45C294.52,172.52 304.7,183.11 309.28,198.6C310.17,202.38 310.41,205.89 310.41,209.77C310.42,211.02 310.77,547.26 310.78,548.69C310.9,564.23 306.38,578.26 295.65,589.85C290.44,594.66 284.4,598.08 278.28,601.6C276.33,602.72 5.05,761.4 4.13,761.95C-0.21,764.5 -4.53,767.08 -8.82,769.71C-23.63,778.69 -37.15,784.12 -54.93,781.04C-64.99,778.39 -73.84,772.86 -82.72,767.6C-83.33,767.24 -209.83,693.01 -217.55,688.43C-223.956,684.631 -358.5,606 -361.32,604.37C-377.86,594.76 -390.91,584.68 -396.72,565.6C-397.53,561.46 -398.34,217.14 -398.35,215.72C-398.5,201.38 -394.69,189.81 -385.72,178.6C-385.1,177.76 -384.49,176.93 -383.85,176.07C-376.83,167.9 -314.08,132.74 -303.78,126.82C-296.64,122.71 -78.49,-5.2 -76.81,-6.23C-49.39,-22.72 -25.96,-15.81 0,0Z"
            style="fill:rgb(6,24,71);fill-rule:nonzero;" />
    </g>
    <g transform="matrix(1,0,0,1,514.234375,165.394531)">
        <path
            d="M0,0C1.37,0.79 268.35,157.01 281.77,165.61C278.82,168.8 194.84,218.18 194.05,218.72C191.77,219.61 191.77,219.61 189.33,218.96C186.56,217.5 3.79,110.98 2.13,109.93C-0.18,108.39 -0.18,108.39 -2.93,108.56C-7.77,110.09 -191.19,218.19 -191.97,218.73C-194.23,219.61 -194.23,219.61 -196.67,218.95C-199.44,217.5 -281.59,169.84 -286.23,166.61C-283.45,163.61 -275.66,158.67 -274.11,157.78C-273.02,157.17 -12.3,4.98 -10.49,3.78C-7.404,1.746 -5.787,0.681 -4.507,0.176C-3.1,-0.379 -2.1,-0.257 0,0Z"
            style="fill:url(#_Linear1);fill-rule:nonzero;" />
    </g>
    <g transform="matrix(1,0,0,1,515,300)">
        <path
            d="M0,0C2.06,1.02 156.54,91.31 167,97L167,99C166.44,99.31 165.89,99.62 165.32,99.94C152.54,107.09 80.6,149.53 78.86,150.66C75.48,152.25 74.51,151.99 71,151C68.79,149.92 68.79,149.92 66.54,148.55C65.69,148.04 4.35,111.68 3.5,111.18C0.62,109.82 -1.82,109.27 -5,109C-7.56,110.09 -76.06,150.51 -76.85,151.03C-79,152 -79,152 -80.95,151.83C-83.53,150.78 -160.81,105.36 -173,98C-168.53,94.6 -8.06,0.44 -7.27,-0.07C-4.31,-1.28 -3.02,-1 0,0Z"
            style="fill:url(#_Linear2);fill-rule:nonzero;" />
    </g>
    <g transform="matrix(1,0,0,1,693,420)">
        <path
            d="M-92.92,70.71C-93.073,66.783 -93.38,58.93 -91,54C-86.87,49.66 -0.916,0.98 0,0L2,0C2.353,52.173 2.707,104.347 3.06,156.52C3.19,177.966 4.325,190.182 -0.13,195.59C-2.7,197.42 -5.13,198.73 -8,200C-155.092,285.88 -154.738,286.419 -168,293C-168.106,286.712 -168.069,286.758 -168.95,214.4C-168.969,212.856 -170.645,190.679 -165.91,184.09C-163.32,182.24 -98.154,147.843 -93,139C-92.87,136.3 -92.903,92.573 -92.92,70.71"
            style="fill:rgb(2,109,140);fill-rule:nonzero;" />
    </g>
    <g transform="matrix(1,0,0,1,330,421)">
        <path
            d="M0,0C0,0 91.38,50.61 93.2,53C93.37,53.874 93.213,130.575 93.2,131.1C93.21,135.6 93.23,138.43 96,142C98.3,143.78 165.31,182.49 166.65,182.98C169,185 169,185 169.45,186.96C169.62,189.68 169.11,278.49 169,291C164.78,289.65 1,194 0,193C-0.1,190.51 -0.06,83.65 -0.05,71.99C-0.04,47.99 0,0 0,0Z"
            style="fill:rgb(1,109,140);fill-rule:nonzero;" />
    </g>
    <g transform="matrix(1,0,0,1,324,636)">
        <path
            d="M0,0C2.49,1.29 175.044,103.202 175.45,105.06C175.62,107.93 175.11,201.78 175,215C170.54,213.58 42.36,138.45 34.68,134.1C20.78,126.2 -95.99,57.16 -98,55C-91.24,50.34 -3.19,-0.48 0,0Z"
            style="fill:url(#_Linear3);fill-rule:nonzero;" />
    </g>
    <g transform="matrix(1,0,0,1,702,635)">
        <path d="M0,0C3.92,1.45 89.29,51.36 96,56C92.89,59.46 -175,216 -177,216L-177,104C-168.42,99.05 -1.04,1.11 0,0Z"
            style="fill:url(#_Linear4);fill-rule:nonzero;" />
    </g>
    <g transform="matrix(1,0,0,1,212,352)">
        <path
            d="M0,0C11.25,5.62 92.5,53.25 94,54C94.3,81.11 95.5,243.87 95.55,245.87C95.9,260.62 95.9,260.62 92.75,264.56C89.25,267.59 8.52,313.08 3.71,316.07C2,317 2,317 0,317L0,0Z"
            style="fill:url(#_Linear5);fill-rule:nonzero;" />
    </g>
    <g transform="matrix(1,0,0,1,812,352)">
        <path
            d="M0,0L0,317C-3.45,315.62 -92.99,265.63 -94.74,261.09C-95.96,255.1 -94.29,79.87 -94,54C-93.48,53.71 -1,0 0,0Z"
            style="fill:url(#_Linear6);fill-rule:nonzero;" />
    </g>
    <g transform="matrix(1,0,0,1,511.429688,441.582031)">
        <path
            d="M0,0C5.8,0.09 9.92,3.07 14.7,6.11C16.64,7.3 31.44,16.3 35.41,18.63C58.86,32.35 58.86,32.35 61.57,36.42C61.84,39.21 62.14,87.42 62.16,88.84C62.33,101.34 62.33,101.34 59.32,105.16C56.92,107.13 10.13,134.33 9.14,134.93C2.11,139.01 2.11,139.01 -2.43,138.42C-5.18,137.05 -53.2,108.58 -54.35,107.93C-57.95,105.31 -60.19,102.84 -60.94,98.38C-60.95,97.25 -60.96,96.13 -60.96,94.96C-60.98,93.68 -60.99,92.39 -61.01,91.07C-61.01,89.68 -61,88.28 -61,86.89C-61,85.45 -61.01,84.01 -61.01,82.57C-61.03,79.56 -61.02,76.55 -61.01,73.54C-60.99,69.69 -61.01,65.84 -61.05,61.99C-61.07,59.03 -61.07,56.06 -61.06,53.09C-61.06,51.67 -61.07,50.25 -61.08,48.83C-61.1,46.85 -61.08,44.86 -61.06,42.87L-61.06,39.45C-60.06,34.62 -56.89,32.44 -52.98,29.71C-51.7,28.95 -51.7,28.95 -50.39,28.18C-50.122,28.019 -7.228,3.063 -6.53,2.67C-2.58,0.31 -2.58,0.31 0,0Z"
            style="fill:url(#_Linear7);fill-rule:nonzero;" />
    </g>
    <g transform="matrix(1,0,0,1,516,442)">
        <path
            d="M0,0C3.59,1.58 6.82,3.59 10.12,5.69C12.07,6.88 14.02,8.07 15.96,9.27C16.95,9.88 17.95,10.5 18.97,11.13C23.85,14.14 28.8,17.04 33.75,19.94C36.33,21.46 38.9,22.98 41.47,24.51C43.24,25.55 45.03,26.57 46.83,27.57C47.73,28.08 48.64,28.6 49.58,29.13C50.81,29.81 50.81,29.81 52.08,30.51C54,32 54,32 54.78,34.18C54.85,34.78 54.92,35.38 55,36C54.49,36.31 53.97,36.62 53.44,36.95C51.09,38.38 48.73,39.81 46.38,41.25C45.16,41.99 45.16,41.99 43.93,42.74C34.35,48.56 34.35,48.56 26,56C25.44,56.43 24.89,56.87 24.31,57.31C22.1,60.16 21.74,63.5 21,67L23,67C22.65,75.22 22.65,75.22 20.12,78.25C19.07,79.12 19.07,79.12 18,80C17.55,80.8 17.09,81.61 16.62,82.44C13.32,87.65 8.04,90.64 3,94C-0.01,96.43 -0.54,98.41 -1.12,102.19C-1.36,103.64 -1.36,103.64 -1.59,105.12C-2.11,108.75 -2.59,112.37 -3,116C-3.99,115.5 -3.99,115.5 -5,115C-5.59,112.07 -6.08,109.2 -6.5,106.25C-7.43,98.89 -7.43,98.89 -10,92C-12.04,91.11 -12.04,91.11 -14,91L-14,89C-14.76,88.71 -15.53,88.42 -16.31,88.12C-19,87 -19,87 -22,85C-22.73,82.62 -22.73,82.62 -23.19,79.88C-23.35,78.96 -23.5,78.05 -23.67,77.12C-23.78,76.42 -23.89,75.72 -24,75C-24.66,75.66 -25.32,76.32 -26,77C-28.78,74.22 -28.41,71.9 -28.66,68.09C-28.83,65.78 -28.83,65.78 -31,64C-30.77,63.24 -30.55,62.47 -30.31,61.69C-30.21,60.8 -30.11,59.91 -30,59C-33.98,54.25 -39.03,51.11 -44.19,47.75C-45.42,46.94 -45.42,46.94 -46.67,46.11C-50.74,43.39 -50.74,43.39 -55,41L-55,39C-56.65,38.34 -58.3,37.68 -60,37C-59.81,34.62 -59.81,34.62 -59,32C-57.35,31.28 -55.69,30.62 -54,30C-53.73,29.39 -53.45,28.78 -53.17,28.15C-51.57,25.2 -49.66,24.34 -46.75,22.71C-45.67,22.11 -44.6,21.5 -43.49,20.87C-42.34,20.23 -41.19,19.6 -40,18.94C-37.62,17.61 -35.25,16.27 -32.88,14.93C-32.29,14.6 -31.7,14.27 -31.1,13.92C-27.52,11.9 -24.02,9.79 -20.55,7.57C-19.75,7.06 -18.95,6.55 -18.13,6.02C-16.67,5.08 -15.22,4.12 -13.79,3.15C-9.32,0.28 -5.35,-1.28 0,0Z"
            style="fill:rgb(8,248,249);fill-rule:nonzero;" />
    </g>
    <g transform="matrix(1,0,0,1,558,483)">
        <path
            d="M0,0C0.99,0.49 0.99,0.49 2,1C0.95,1.74 0.95,1.74 -0.12,2.5C-12.56,10.41 -12.56,10.41 -20.12,22.12C-20.41,23.4 -20.7,24.68 -21,26L-19,26C-19.35,34.22 -19.35,34.22 -21.88,37.25C-22.93,38.12 -22.93,38.12 -24,39C-24.45,39.8 -24.91,40.61 -25.38,41.44C-28.68,46.65 -33.96,49.64 -39,53C-42.01,55.43 -42.54,57.41 -43.12,61.19C-43.36,62.64 -43.36,62.64 -43.59,64.12C-44.11,67.75 -44.59,71.37 -45,75C-45.99,74.5 -45.99,74.5 -47,74C-47.59,71.07 -48.08,68.2 -48.5,65.25C-49.43,57.89 -49.43,57.89 -52,51C-54.04,50.11 -54.04,50.11 -56,50L-56,48C-56.76,47.71 -57.53,47.42 -58.31,47.12C-61,46 -61,46 -64,44C-64.73,41.62 -64.73,41.62 -65.19,38.88C-65.35,37.96 -65.5,37.05 -65.67,36.12C-65.83,35.07 -65.83,35.07 -66,34C-66.66,34.66 -67.32,35.32 -68,36C-70.78,33.22 -70.41,30.9 -70.66,27.09C-70.83,24.78 -70.83,24.78 -73,23C-72.66,21.86 -72.66,21.86 -72.31,20.69C-72.21,19.8 -72.11,18.91 -72,18C-75.8,13.53 -80.46,10.44 -85.31,7.19C-86.05,6.69 -86.79,6.18 -87.56,5.67C-89.37,4.44 -91.18,3.22 -93,2C-91,1 -91,1 -87.88,1.94C-86.93,2.29 -85.98,2.64 -85,3L-85,5C-83.13,5.48 -81.25,5.96 -79.38,6.44C-78.33,6.7 -77.29,6.97 -76.21,7.25C-75.15,7.49 -74.09,7.74 -73,8C-71.98,8.25 -70.97,8.49 -69.92,8.75C-66.42,9.05 -64.91,8.34 -61.88,6.62C-58.89,4.96 -56.33,3.76 -53,3C-52.67,2.67 -52.34,2.34 -52,2C-46.48,1.48 -41.58,1.27 -36.5,3.62C-33.72,6.26 -31.94,8.71 -30,12C-22.67,10.89 -16.55,8.74 -9.94,5.44C-9.08,5.03 -8.23,4.61 -7.35,4.19C-3.42,2.48 -3.42,2.48 0,0Z"
            style="fill:rgb(89,250,253);fill-rule:nonzero;" />
    </g>
    <g transform="matrix(1,0,0,1,515,494)">
        <path
            d="M0,0C1.61,0.47 3.22,0.98 4.81,1.5C9.96,3.18 14.63,3.31 20,3C19.45,6.37 18.95,8.08 17,11C16.32,14.18 15.75,17.34 15.23,20.55C14.11,26.82 14.11,26.82 11,29C9.33,29.94 7.64,30.86 5.94,31.75C2.38,33.72 2.38,33.72 0.01,36.88C-0.39,38.57 -0.7,40.28 -1,42C-1.99,42.66 -2.98,43.32 -4,44C-5.21,41.15 -6.1,38.54 -6.75,35.5C-8.35,31.01 -10.26,29.84 -14,27L-14,25C-14.99,24.67 -15.98,24.34 -17,24C-17.07,23.18 -17.15,22.36 -17.23,21.52C-17.82,14.64 -17.82,14.64 -22,9.56C-22.99,9.05 -23.98,8.53 -25,8C-26.19,5.4 -26.19,5.4 -27,3C-26.06,3.03 -25.12,3.07 -24.15,3.11C-22.9,3.13 -21.66,3.16 -20.38,3.19C-18.53,3.24 -18.53,3.24 -16.65,3.29C-10.33,2.79 -6.61,-0.66 0,0Z"
            style="fill:rgb(214,254,254);fill-rule:nonzero;" />
    </g>
    <g transform="matrix(1,0,0,1,515,494)">
        <path
            d="M0,0C1.61,0.47 3.22,0.98 4.81,1.5C9.96,3.18 14.63,3.31 20,3C19.45,6.37 18.95,8.08 17,11C16.32,14.18 15.75,17.34 15.23,20.55C14.11,26.82 14.11,26.82 11,29C9.33,29.94 7.64,30.86 5.94,31.75C2.38,33.72 2.38,33.72 0.01,36.88C-0.39,38.57 -0.7,40.28 -1,42C-1.99,42.66 -2.98,43.32 -4,44C-5.21,41.15 -6.1,38.54 -6.75,35.5C-8.35,31.01 -10.26,29.84 -14,27L-14,25C-14.99,24.67 -15.98,24.34 -17,24C-18.28,20.15 -18.07,17.05 -18,13C-15.6,13.97 -14.26,14.58 -12.88,16.8C-12.59,17.49 -12.3,18.17 -12,18.88C-10.79,21.54 -10.04,22.96 -7.88,25C-5.07,27.99 -4.8,31.01 -4,35L-2,35C-1.82,34.39 -1.64,33.77 -1.45,33.14C-1.2,32.33 -0.95,31.52 -0.69,30.69C-0.44,29.89 -0.2,29.09 0.05,28.26C1.05,25.87 2.15,24.77 4,23C4.33,22.01 4.66,21.02 5,20L7,20C6.85,18.86 6.85,18.86 6.69,17.69C6.79,16.8 6.89,15.91 7,15C8.67,14 10.33,13 12,12C12.42,9.37 12.42,9.37 12,7C11.04,7.02 11.04,7.02 10.07,7.04C9.24,7.04 8.41,7.05 7.56,7.06C6.33,7.08 6.33,7.08 5.07,7.1C3,7 3,7 2,6C0.22,5.91 -1.56,5.89 -3.35,5.9C-4.43,5.91 -5.51,5.91 -6.62,5.91C-8.32,5.92 -8.32,5.92 -10.06,5.94C-11.2,5.94 -12.34,5.95 -13.52,5.95C-16.35,5.96 -19.17,5.98 -22,6L-22,9C-22.99,8.67 -23.98,8.34 -25,8C-26.19,5.44 -26.19,5.44 -27,3C-26.06,3.03 -25.12,3.07 -24.15,3.11C-22.9,3.13 -21.66,3.16 -20.38,3.19C-18.53,3.24 -18.53,3.24 -16.65,3.29C-10.33,2.79 -6.61,-0.66 0,0Z"
            style="fill:rgb(136,249,252);fill-rule:nonzero;" />
    </g>
    <g transform="matrix(1,0,0,1,544,494)">
        <path
            d="M0,0C0.66,0.33 1.32,0.66 2,1C1.28,1.51 1.28,1.51 0.54,2.03C-4.55,5.94 -6.02,8.67 -7,15L-5,15C-5.35,23.22 -5.35,23.22 -7.88,26.25C-8.93,27.12 -8.93,27.12 -10,28C-10.45,28.8 -10.91,29.61 -11.38,30.44C-14.68,35.65 -19.96,38.64 -25,42C-28.01,44.43 -28.54,46.41 -29.12,50.19C-29.28,51.16 -29.43,52.13 -29.59,53.12C-30.11,56.75 -30.59,60.37 -31,64C-31.66,63.67 -32.32,63.34 -33,63C-33.59,60.07 -34.08,57.2 -34.5,54.25C-35.43,46.89 -35.43,46.89 -38,40C-40.04,39.11 -40.04,39.11 -42,39L-42,37C-43.14,36.57 -43.14,36.57 -44.31,36.12C-47,35 -47,35 -50,33C-50.19,29.88 -50.19,29.88 -50,27C-49.67,27.66 -49.34,28.32 -49,29L-47,29C-46.67,29.99 -46.34,30.98 -46,32C-45.34,32.33 -44.68,32.66 -44,33L-44,35C-42.93,35.27 -41.85,35.54 -40.75,35.81C-37.41,36.87 -35.49,37.61 -33,40C-32.67,40.99 -32.34,41.98 -32,43C-29.84,40.2 -29.84,40.2 -29.5,37.19C-27.18,32.26 -22.81,30.29 -18,28L-16,28C-15.76,26.25 -15.76,26.25 -15.52,24.46C-15.28,22.91 -15.05,21.36 -14.81,19.81C-14.71,19.04 -14.61,18.27 -14.51,17.48C-13.34,10.14 -9.58,6.98 -3.69,2.69C-2.99,2.18 -2.29,1.66 -1.57,1.14C-1.05,0.76 -0.54,0.39 0,0Z"
            style="fill:rgb(81,240,252);fill-rule:nonzero;" />
    </g>
    <g transform="matrix(1,0,0,1,485,499)">
        <path
            d="M0,0C4.48,1.49 8.96,3.29 12,7C12.61,9.75 12.61,9.75 12.94,12.88C13.46,17.74 14.25,19.93 18,23.12C19.32,24.1 20.65,25.06 22,26C24,28 24,28 24.12,31.12C24.08,32.07 24.04,33.02 24,34C19.55,32.02 19.55,32.02 15,30L15,28C14.01,27.67 13.02,27.34 12,27L12,24L10,24C9.01,22.02 8.02,20.04 7,18C6.34,18.66 5.68,19.32 5,20C2.22,17.22 2.59,14.9 2.34,11.09C2.17,8.78 2.17,8.78 0,7C0.29,5.33 0.63,3.66 1,2C0.67,1.34 0.34,0.68 0,0Z"
            style="fill:rgb(123,246,252);fill-rule:nonzero;" />
    </g>
    <g transform="matrix(1,0,0,1,497,507)">
        <path
            d="M0,0C2.4,0.97 3.74,1.58 5.12,3.8C5.41,4.49 5.7,5.17 6,5.88C7.21,8.54 7.96,9.96 10.12,12C12.93,14.99 13.2,18.01 14,22L16,22C16.18,21.39 16.36,20.77 16.55,20.14C16.8,19.33 17.05,18.52 17.31,17.69C17.56,16.89 17.8,16.09 18.05,15.26C19.05,12.87 20.15,11.77 22,10C22.33,9.01 22.66,8.02 23,7L25,7L25,2C26.32,1.34 27.64,0.68 29,0C28.02,11.72 28.02,11.72 25.6,14.75C23.44,16.18 21.61,17 19,17C18.97,17.68 18.95,18.35 18.92,19.05C18.45,26.42 18.45,26.42 15.94,29.62C15.3,30.08 14.66,30.53 14,31C12.79,28.15 11.9,25.54 11.25,22.5C9.65,18.01 7.74,16.84 4,14L4,12C3.01,11.67 2.02,11.34 1,11C-0.28,7.15 -0.07,4.05 0,0Z"
            style="fill:rgb(164,250,253);fill-rule:nonzero;" />
    </g>
    <g transform="matrix(1,0,0,1,544,494)">
        <path
            d="M0,0C0.66,0.33 1.32,0.66 2,1C1.28,1.51 1.28,1.51 0.54,2.03C-4.55,5.94 -6.02,8.67 -7,15L-5,15C-5.35,23.22 -5.35,23.22 -7.88,26.25C-8.58,26.83 -9.28,27.41 -10,28C-10.45,28.8 -10.91,29.61 -11.38,30.44C-14.68,35.65 -19.96,38.64 -25,42C-27.16,43.93 -28.36,45.54 -30,48C-29.63,41.65 -29.63,41.65 -26.88,38.81C-24,37 -24,37 -20.5,35.19C-16.48,32.97 -14.29,29.91 -12,26C-11.63,25.42 -11.25,24.84 -10.87,24.24C-9.63,21.04 -9.91,18.11 -9.94,14.69C-9.85,10.61 -9.6,7.73 -6.94,4.46C-4.69,2.76 -2.5,1.3 0,0Z"
            style="fill:rgb(45,233,250);fill-rule:nonzero;" />
    </g>
    <g transform="matrix(1,0,0,1,511.6875,484.6875)">
        <path
            d="M0,0C5.47,0.03 8.33,0.56 12.31,4.31L12.31,6.31C11.29,5.83 11.29,5.83 10.24,5.34C4.73,3.4 -0.95,3.54 -6.69,4.31C-9.86,5.88 -12.24,7.77 -14.69,10.31C-15.69,11.31 -15.69,11.31 -18.25,11.62C-22.7,11.22 -25.85,9.49 -29.69,7.31C-26.69,6.31 -26.69,6.31 -24.12,7.06C-19.55,7.4 -16.99,5.73 -13.05,3.54C-10.89,2.42 -9.04,1.85 -6.69,1.31C-4.91,-0.47 -2.41,0.06 0,0Z"
            style="fill:rgb(55,249,252);fill-rule:nonzero;" />
    </g>
    <g transform="matrix(1,0,0,1,558,483)">
        <path
            d="M0,0C0.66,0.33 1.32,0.66 2,1C-5.9,6.81 -13.91,12.45 -22,18C-22.15,17.04 -22.15,17.04 -22.31,16.06C-22.54,15.38 -22.77,14.7 -23,14C-23.99,13.67 -24.98,13.34 -26,13C-25.25,12.64 -24.5,12.28 -23.72,11.91C-20.33,10.3 -16.95,8.68 -13.56,7.06C-12.38,6.5 -11.19,5.93 -9.97,5.35C-8.85,4.82 -7.73,4.28 -6.57,3.72C-5.52,3.23 -4.48,2.73 -3.41,2.22C-1.11,1.21 -1.11,1.21 0,0Z"
            style="fill:rgb(99,252,254);fill-rule:nonzero;" />
    </g>
    <g transform="matrix(1,0,0,1,504.625,498.8125)">
        <path
            d="M0,0C1.62,-0.02 1.62,-0.02 3.28,-0.04C9.04,-0.05 13.94,0.22 19.38,2.19C17.38,4.19 17.38,4.19 14.31,4.38C11.38,4.19 11.38,4.19 10.38,3.19C6.84,3.37 3.32,3.71 -0.21,4.03C-3.06,4.16 -4.97,4.1 -7.62,3.19C-7.96,4.18 -8.29,5.17 -8.62,6.19C-9.62,5.86 -10.61,5.53 -11.62,5.19C-12.38,3.19 -12.38,3.19 -12.62,1.19C-10.13,-1.31 -3.36,0 0,0Z"
            style="fill:rgb(175,253,253);fill-rule:nonzero;" />
    </g>
    <g transform="matrix(1,0,0,1,531,503)">
        <path
            d="M0,0C1.57,3.14 0.42,6.13 -0.25,9.44C-0.37,10.12 -0.49,10.8 -0.62,11.5C-1.86,17.77 -1.86,17.77 -5,20C-6.54,20.94 -8.1,21.84 -9.69,22.69C-10.9,23.34 -10.9,23.34 -12.14,24.01C-13.06,24.5 -13.06,24.5 -14,25L-14,23L-12,23L-12,21C-11.07,20.57 -10.14,20.13 -9.19,19.69C-6.5,18.04 -6.02,17.06 -5.04,13.99C-4.56,11.7 -4.13,9.4 -3.74,7.09C-2.99,3.98 -2.11,2.37 0,0Z"
            style="fill:rgb(112,245,252);fill-rule:nonzero;" />
    </g>
    <g transform="matrix(1,0,0,1,485,499)">
        <path
            d="M0,0C4.88,1.88 4.88,1.88 6,3C6.07,5.86 6.09,8.7 6.06,11.56C6.06,12.37 6.05,13.18 6.05,14.01C6.04,16 6.02,18 6,20C3,18 3,18 2.56,15.91C2.52,15.11 2.48,14.32 2.44,13.5C2.34,9.81 2.34,9.81 0,7C0.29,5.33 0.63,3.66 1,2C0.67,1.34 0.34,0.68 0,0Z"
            style="fill:rgb(56,237,251);fill-rule:nonzero;" />
    </g>
    <g transform="matrix(1,0,0,1,494,521)">
        <path
            d="M0,0C0.33,0.66 0.66,1.32 1,2L3,2C3.33,2.99 3.66,3.98 4,5C4.66,5.33 5.32,5.66 6,6L6,8C7.64,8.37 7.64,8.37 9.31,8.75C13,10 13,10 14.94,11.62C16.52,15.17 16.19,18.14 16,22C14.85,19.78 13.9,17.7 13.12,15.31C12.23,12.81 12.23,12.81 9.88,12.19C9.26,12.13 8.64,12.06 8,12L8,10C6.86,9.57 6.86,9.57 5.69,9.12C3,8 3,8 0,6C-0.19,2.88 -0.19,2.88 0,0Z"
            style="fill:rgb(63,234,250);fill-rule:nonzero;" />
    </g>
    <g transform="matrix(1,0,0,1,495,521)">
        <path
            d="M0,0C4,1.33 6.05,3.05 9,6C11.14,6.79 11.14,6.79 13,7C13.33,8.65 13.66,10.3 14,12C9.54,10.02 9.54,10.02 5,8L5,6C4.01,5.67 3.02,5.34 2,5L2,2L0,2L0,0Z"
            style="fill:rgb(89,240,251);fill-rule:nonzero;" />
    </g>
    <g transform="matrix(1,0,0,1,491,503)">
        <path
            d="M0,0C2.47,2.47 2.54,3.91 3.12,7.31C3.29,8.26 3.46,9.2 3.63,10.18C3.98,12.82 4.07,15.33 4,18C1.37,16.68 1.03,15.75 0,13C-0.2,9.77 -0.2,9.77 -0.12,6.25C-0.1,4.49 -0.1,4.49 -0.07,2.7C-0.05,1.81 -0.02,0.92 0,0Z"
            style="fill:rgb(87,242,252);fill-rule:nonzero;" />
    </g>
    <g transform="matrix(1,0,0,1,514,544)">
        <path
            d="M0,0C-0.33,4.62 -0.66,9.24 -1,14C-1.66,13.67 -2.32,13.34 -3,13C-3.41,10.5 -3.41,10.5 -3.62,7.44C-3.7,6.43 -3.77,5.41 -3.85,4.37C-3.9,3.59 -3.95,2.81 -4,2C-1,0 -1,0 0,0Z"
            style="fill:rgb(63,238,254);fill-rule:nonzero;" />
    </g>
    <g transform="matrix(1,0,0,1,526,522)">
        <path
            d="M0,0C0.66,0.33 1.32,0.66 2,1C-1.49,4.9 -4.05,6.46 -9,8C-9.66,8.99 -10.32,9.98 -11,11C-10.81,8.71 -10.81,8.71 -10,6C-7.79,4.16 -7.79,4.16 -5.06,2.62C-4.17,2.1 -3.27,1.58 -2.35,1.04C-1.57,0.7 -0.8,0.35 0,0Z"
            style="fill:rgb(92,239,251);fill-rule:nonzero;" />
    </g>
    <g transform="matrix(1,0,0,1,492,503)">
        <path
            d="M0,0C3,2 3,2 3.66,4.9C3.79,6.05 3.93,7.19 4.06,8.38C4.53,12.35 4.94,15.53 7,19C5.68,18.67 4.36,18.34 3,18C2.01,12.06 1.02,6.12 0,0Z"
            style="fill:rgb(106,244,251);fill-rule:nonzero;" />
    </g>
    <g transform="matrix(1,0,0,1,465,484)">
        <path
            d="M0,0C2.64,0.66 5.28,1.32 8,2L8,4C10.31,4.66 12.62,5.32 15,6C14.01,7.49 14.01,7.49 13,9C9.91,7.53 7.1,5.83 4.25,3.94C3.45,3.41 2.65,2.88 1.83,2.34C1.22,1.9 0.62,1.46 0,1L0,0Z"
            style="fill:rgb(73,251,254);fill-rule:nonzero;" />
    </g>
    <g transform="matrix(1,0,0,1,558,483)">
        <path
            d="M0,0C0.66,0.33 1.32,0.66 2,1C0.29,2.37 -1.45,3.72 -3.19,5.06C-4.15,5.82 -5.11,6.57 -6.11,7.35C-9,9 -9,9 -11.86,8.75C-12.57,8.5 -13.27,8.25 -14,8C-11.2,6.13 -8.37,4.46 -5.44,2.81C-4.47,2.26 -3.5,1.71 -2.5,1.14C-1.67,0.77 -0.85,0.39 0,0Z"
            style="fill:rgb(67,251,254);fill-rule:nonzero;" />
    </g>
    <g transform="matrix(1,0,0,1,496,489)">
        <path
            d="M0,0C0.66,0.33 1.32,0.66 2,1C-0.06,3.56 -0.06,3.56 -3,6C-7.64,6 -10.58,5.15 -14,2C-13.41,2.11 -12.82,2.21 -12.21,2.32C-7.02,3.11 -4.41,3.21 0,0Z"
            style="fill:rgb(41,246,249);fill-rule:nonzero;" />
    </g>
    <g transform="matrix(1,0,0,1,500,509)">
        <path
            d="M0,0C2.8,1.4 3.02,3.43 4.14,6.21C5.31,8.65 6.97,10.25 9,12C8.67,12.66 8.34,13.32 8,14C3.71,11.11 1.73,9.34 0.62,4.19C0.39,2.8 0.18,1.4 0,0Z"
            style="fill:rgb(184,251,252);fill-rule:nonzero;" />
    </g>
    <g transform="matrix(1,0,0,1,531,499)">
        <path
            d="M0,0C0.33,1.32 0.66,2.64 1,4C-0.98,4.99 -0.98,4.99 -3,6C-3.1,5.36 -3.21,4.72 -3.31,4.06C-3.54,3.38 -3.77,2.7 -4,2C-4.99,1.67 -5.98,1.34 -7,1C-4.54,-0.23 -2.72,-0.07 0,0Z"
            style="fill:rgb(172,254,254);fill-rule:nonzero;" />
    </g>
    <g transform="matrix(1,0,0,1,488,497)">
        <path
            d="M0,0C2.88,-0.12 2.88,-0.12 6,0C6.66,0.66 7.32,1.32 8,2C7.01,2.33 6.02,2.66 5,3L5,6C4.01,5.67 3.02,5.34 2,5C0.81,2.44 0.81,2.44 0,0Z"
            style="fill:rgb(142,253,254);fill-rule:nonzero;" />
    </g>
    <g transform="matrix(1,0,0,1,535,497)">
        <path
            d="M0,0C-0.38,2.44 -0.38,2.44 -1,5C-1.99,5.5 -1.99,5.5 -3,6C-3.1,5.36 -3.21,4.72 -3.31,4.06C-3.54,3.38 -3.77,2.7 -4,2C-4.99,1.67 -5.98,1.34 -7,1C-4.54,-0.23 -2.72,-0.07 0,0Z"
            style="fill:rgb(143,253,254);fill-rule:nonzero;" />
    </g>
    <g transform="matrix(1,0,0,1,539,495)">
        <path d="M0,0L0,4C-1.98,4.99 -1.98,4.99 -4,6L-4,2C-4.99,1.67 -5.98,1.34 -7,1C-4.54,-0.23 -2.72,-0.07 0,0Z"
            style="fill:rgb(116,253,254);fill-rule:nonzero;" />
    </g>
    <g transform="matrix(1,0,0,1,485,495)">
        <path
            d="M0,0C2.31,0.33 4.62,0.66 7,1C5.68,1.33 4.36,1.66 3,2C3.66,3.32 4.32,4.64 5,6C2.52,5.01 2.52,5.01 0,4L0,0Z"
            style="fill:rgb(117,253,254);fill-rule:nonzero;" />
    </g>
    <g transform="matrix(1,0,0,1,509,531)">
        <path d="M0,0C2.97,0.49 2.97,0.49 6,1C4.25,5.88 4.25,5.88 2,7C1.34,4.69 0.68,2.38 0,0Z"
            style="fill:rgb(142,249,254);fill-rule:nonzero;" />
    </g>
    <defs>
        <linearGradient id="_Linear1" x1="0" y1="0" x2="1" y2="0" gradientUnits="userSpaceOnUse"
            gradientTransform="matrix(568,-219.637623,219.637623,568,-286.23,219.421021)">
            <stop offset="0" style="stop-color:rgb(1,181,200);stop-opacity:1" />
            <stop offset="1" style="stop-color:rgb(2,220,200);stop-opacity:1" />
        </linearGradient>
        <linearGradient id="_Linear2" x1="0" y1="0" x2="1" y2="0" gradientUnits="userSpaceOnUse"
            gradientTransform="matrix(339,-152.784429,152.784429,339,-172,151.915529)">
            <stop offset="0" style="stop-color:rgb(1,181,200);stop-opacity:1" />
            <stop offset="1" style="stop-color:rgb(2,220,200);stop-opacity:1" />
        </linearGradient>
        <linearGradient id="_Linear3" x1="0" y1="0" x2="1" y2="0" gradientUnits="userSpaceOnUse"
            gradientTransform="matrix(273.598981,215.214389,-215.214389,273.598981,-98,-0.214389)">
            <stop offset="0" style="stop-color:rgb(4,90,146);stop-opacity:1" />
            <stop offset="1" style="stop-color:rgb(3,72,120);stop-opacity:1" />
        </linearGradient>
        <linearGradient id="_Linear4" x1="0" y1="0" x2="1" y2="0" gradientUnits="userSpaceOnUse"
            gradientTransform="matrix(-273,216,-216,-273,96,0)">
            <stop offset="0" style="stop-color:rgb(1,158,154);stop-opacity:1" />
            <stop offset="1" style="stop-color:rgb(1,112,128);stop-opacity:1" />
        </linearGradient>
        <linearGradient id="_Linear5" x1="0" y1="0" x2="1" y2="0" gradientUnits="userSpaceOnUse"
            gradientTransform="matrix(95.703125,317,-317,95.703125,0,0)">
            <stop offset="0" style="stop-color:rgb(4,90,146);stop-opacity:1" />
            <stop offset="1" style="stop-color:rgb(3,72,120);stop-opacity:1" />
        </linearGradient>
        <linearGradient id="_Linear6" x1="0" y1="0" x2="1" y2="0" gradientUnits="userSpaceOnUse"
            gradientTransform="matrix(-95.636105,317,-317,-95.636105,0,0)">
            <stop offset="0" style="stop-color:rgb(1,158,154);stop-opacity:1" />
            <stop offset="1" style="stop-color:rgb(1,112,128);stop-opacity:1" />
        </linearGradient>
        <linearGradient id="_Linear7" x1="0" y1="0" x2="1" y2="0" gradientUnits="userSpaceOnUse"
            gradientTransform="matrix(123.307302,138.700314,-138.700314,123.307302,-61.088284,0)">
            <stop offset="0" style="stop-color:rgb(8,248,249);stop-opacity:1" />
            <stop offset="1" style="stop-color:rgb(6,219,249);stop-opacity:1" />
        </linearGradient>
    </defs>
</svg>